# xmcd
#
# Track frame offsets:
#	150
#	24134
#	44180
#	62055
#	82654
#	100284
#	120407
#	138316
#	157296
#	174527
#
# Disc length: 2553 seconds
#
# Revision: 1
# Processed by: cddbd v1.5.2PL0 Copyright (c) Steve Scherf et al.
# Submitted via: audiograbber 1.83.01
#
DISCID=7e09f70a
DTITLE=Various Artist - Hot Sun and Salsa - Disc One
DYEAR=2005
DGENRE=Latin
TTITLE0=Joe Arroyo Y La Verdad - Te Quiero Mas
TTITLE1=Grupo Cariaco - 90 60 90
TTITLE2=Los Brujos Del Son - Las Dos Ranas
TTITLE3=Los Del Caney - Se Caso Simon
TTITLE4=Los Nemus - El Picaflor
TTITLE5=Combinacion De La Habana - Que Se La Tome El Ternero
TTITLE6=Maria Victoria Y Su Latin Son - Yo No Tengo La Culpa
TTITLE7=Alfredo De La Fe - Excelente Amante
TTITLE8=Son De Oriente - Por Mentirosa
TTITLE9=Yolanda Rayo - A Santa Barbara
EXTD=
EXTT0=
EXTT1=
EXTT2=
EXTT3=
EXTT4=
EXTT5=
EXTT6=
EXTT7=
EXTT8=
EXTT9=
PLAYORDER=
